HIERARCHY
ROOT Hips
{
	OFFSET 0.000000 0.000000 0.000000
	CHANNELS 6 Xposition Yposition Zposition Xrotation Yrotation Zrotation
	JOINT LeftUpLeg_virtual
	{
		OFFSET 0.000000 0.000000 0.000000
		CHANNELS 3 Xrotation Yrotation Zrotation
		JOINT LeftUpLeg
		{
			OFFSET 10.205400 -3.823500 0.155100
			CHANNELS 3 Xrotation Yrotation Zrotation
			JOINT LeftLeg
			{
				OFFSET 0.708757 -12.982077 0.567790
				CHANNELS 3 Xrotation Yrotation Zrotation
				JOINT LeftFoot
				{
					OFFSET -0.708756 -10.717838 -2.184338
					CHANNELS 3 Xrotation Yrotation Zrotation
					JOINT LeftToeBase
					{
						OFFSET 0.108149 -7.191104 7.560241
						CHANNELS 3 Xrotation Yrotation Zrotation
						JOINT LeftToe_End
						{
							OFFSET 0.070230 0.081724 4.490308
							CHANNELS 3 Xrotation Yrotation Zrotation
							End Site
							{
								OFFSET 0 0 0
							}
						}
					}
				}
			}
		}
	}
	JOINT RightUpLeg_virtual
	{
		OFFSET 0.000000 0.000000 0.000000
		CHANNELS 3 Xrotation Yrotation Zrotation
		JOINT RightUpLeg
		{
			OFFSET -10.205400 -3.823500 0.005500
			CHANNELS 3 Xrotation Yrotation Zrotation
			JOINT RightLeg
			{
				OFFSET -0.708756 -12.982134 0.610632
				CHANNELS 3 Xrotation Yrotation Zrotation
				JOINT RightFoot
				{
					OFFSET 0.708754 -10.717769 -1.945823
					CHANNELS 3 Xrotation Yrotation Zrotation
					JOINT RightToeBase
					{
						OFFSET -0.108140 -7.191069 7.372968
						CHANNELS 3 Xrotation Yrotation Zrotation
						JOINT RightToe_End
						{
							OFFSET -0.070227 0.081735 4.479403
							CHANNELS 3 Xrotation Yrotation Zrotation
							End Site
							{
								OFFSET 0 0 0
							}
						}
					}
				}
			}
		}
	}
	JOINT Spine_virtual
	{
		OFFSET 0.000000 0.000000 0.000000
		CHANNELS 3 Xrotation Yrotation Zrotation
		JOINT Spine
		{
			OFFSET 0.000000 6.876099 0.125700
			CHANNELS 3 Xrotation Yrotation Zrotation
			JOINT Spine1
			{
				OFFSET 0.000000 5.730043 0.104720
				CHANNELS 3 Xrotation Yrotation Zrotation
				JOINT Spine1_split
				{
					OFFSET 0.000000 5.730043 0.104720
					CHANNELS 3 Xrotation Yrotation Zrotation
					JOINT Spine2
					{
						OFFSET 0.000000 5.730043 0.104720
						CHANNELS 3 Xrotation Yrotation Zrotation
						JOINT Neck_virtual
						{
							OFFSET 0.000000 0.000000 0.000000
							CHANNELS 3 Xrotation Yrotation Zrotation
							JOINT Neck
							{
								OFFSET 0.000000 10.314075 0.188496
								CHANNELS 3 Xrotation Yrotation Zrotation
								JOINT Head
								{
									OFFSET 0.000000 7.643700 -2.377400
									CHANNELS 3 Xrotation Yrotation Zrotation
									JOINT HeadTop_End
									{
										OFFSET 0.000000 43.788605 -13.619600
										CHANNELS 3 Xrotation Yrotation Zrotation
										End Site
										{
											OFFSET 0 0 0
										}
									}
								}
							}
						}
						JOINT LeftShoulder_virtual
						{
							OFFSET 0.000000 0.000000 0.000000
							CHANNELS 3 Xrotation Yrotation Zrotation
							JOINT LeftShoulder
							{
								OFFSET 2.196100 4.412489 0.087492
								CHANNELS 3 Xrotation Yrotation Zrotation
								JOINT LeftShoulder_split
								{
									OFFSET 2.196100 4.412489 0.087492
									CHANNELS 3 Xrotation Yrotation Zrotation
									JOINT LeftArm
									{
										OFFSET 8.771219 -2.981674 -0.026999
										CHANNELS 3 Xrotation Yrotation Zrotation
										JOINT LeftForeArm
										{
											OFFSET 8.512804 0.000000 -0.000000
											CHANNELS 3 Xrotation Yrotation Zrotation
											JOINT LeftHand
											{
												OFFSET 18.484802 0.000000 -0.000000
												CHANNELS 3 Xrotation Yrotation Zrotation
												End Site
												{
													OFFSET 0 0 0
												}
											}
										}
									}
								}
							}
						}
						JOINT RightShoulder_virtual
						{
							OFFSET 0.000000 0.000000 0.000000
							CHANNELS 3 Xrotation Yrotation Zrotation
							JOINT RightShoulder
							{
								OFFSET -2.196100 4.412496 0.070690
								CHANNELS 3 Xrotation Yrotation Zrotation
								JOINT RightShoulder_split
								{
									OFFSET -2.196100 4.412496 0.070690
									CHANNELS 3 Xrotation Yrotation Zrotation
									JOINT RightArm
									{
										OFFSET -8.771282 -2.981682 -0.094208
										CHANNELS 3 Xrotation Yrotation Zrotation
										JOINT RightForeArm
										{
											OFFSET -8.494598 0.000000 0.000000
											CHANNELS 3 Xrotation Yrotation Zrotation
											JOINT RightHand
											{
												OFFSET -18.483803 0.000000 0.000001
												CHANNELS 3 Xrotation Yrotation Zrotation
												End Site
												{
													OFFSET 0 0 0
												}
											}
										}
									}
								}
							}
						}
					}
				}
			}
		}
	}
}
MOTION
Frames: 4
Frame Time: 0.03333333
0.365813 27.470171 0.593264 0.000000 0.000000 0.000000 7.813631 -54.550744 9.468645 -64.200466 27.225867 42.778612 51.695776 -19.538654 0.530745 -2.735724 -0.214306 -9.776533 -1.021135 -7.220886 3.402160 0.000000 0.000000 0.000000 6.967598 -55.184985 9.920633 -22.697393 -1.149522 -33.721846 43.371845 6.297270 -10.738902 -31.660317 -7.411869 30.426881 4.562199 7.296954 3.761863 0.000000 0.000000 0.000000 10.351601 -48.986158 11.119533 13.624843 3.655426 -3.436950 2.823494 6.813381 -4.338362 0.242948 -4.651474 1.467717 0.000000 0.000000 0.000000 -3.756628 5.910862 -3.228186 -0.509620 10.888126 -0.410912 -2.232353 26.369047 -4.367445 0.000000 0.000000 0.000000 -4.710060 5.599011 -3.333374 -0.663149 -7.709539 -2.904514 -0.232458 -3.021137 2.660167 -10.885960 5.960444 -45.253763 -20.981119 -28.781717 -16.907573 0.000000 0.000000 0.000000 -5.163640 5.550940 -2.883433 -2.190166 21.766044 0.765024 -4.442341 -1.790045 2.955258 3.341635 -30.035368 59.543274 -19.408015 38.813499 18.955247 0.000000 0.000000 0.000000 
0.225357 27.438419 0.549585 0.000000 0.000000 0.000000 7.554784 -54.717793 9.616118 -64.195828 27.786053 42.745731 51.803430 -19.388330 0.461723 -2.371972 0.203734 -8.930851 -0.250597 -7.139912 2.800780 0.000000 0.000000 0.000000 6.678165 -55.197829 9.957018 -23.275439 -1.248295 -33.982110 43.514271 6.032836 -10.530758 -31.287133 -7.373837 30.150303 4.713420 7.246456 3.862506 0.000000 0.000000 0.000000 9.844485 -49.059333 10.871645 13.789559 3.428400 -3.745996 2.796402 6.790544 -4.360640 -0.164934 -4.301626 1.077340 0.000000 0.000000 0.000000 -3.839005 5.945644 -3.240497 -0.591809 11.204490 -0.549898 -2.185331 26.446494 -4.184335 0.000000 0.000000 0.000000 -4.744951 5.585012 -3.330842 -0.544679 -7.952873 -2.326693 -0.633678 -2.342333 1.869844 -11.522439 5.986087 -45.301062 -21.495579 -29.743551 -17.492383 0.000000 0.000000 0.000000 -5.046481 5.530438 -2.815243 -2.179248 21.379693 0.886797 -5.416092 -1.292267 3.049545 5.332774 -30.332822 60.285019 -19.494839 39.184700 19.077804 0.000000 0.000000 0.000000 
0.050921 27.445707 0.519594 0.000000 0.000000 0.000000 7.302346 -55.071269 9.517163 -64.326927 27.782464 43.008100 51.848079 -19.423067 0.662939 -0.849669 0.391680 -9.277291 1.086284 -6.975403 1.304634 0.000000 0.000000 0.000000 6.271472 -55.567462 9.744151 -23.676204 -1.487725 -33.703504 43.551622 5.583862 -10.248063 -31.320953 -7.539851 29.235289 4.929897 7.160816 3.883721 0.000000 0.000000 0.000000 9.325841 -49.426992 10.443650 13.878586 3.221301 -4.065115 2.790221 6.844351 -4.352386 -0.376583 -3.917125 0.990326 0.000000 0.000000 0.000000 -3.883154 6.085916 -3.216040 -0.405550 11.557868 -0.727289 -1.890413 25.814505 -3.955659 0.000000 0.000000 0.000000 -4.783557 5.672142 -3.197630 -0.424431 -8.357721 -1.758584 -0.535732 -1.684535 0.876224 -11.806916 6.229451 -44.842989 -22.508996 -31.793694 -18.875655 0.000000 0.000000 0.000000 -4.923533 5.613417 -2.714425 -1.977680 20.820971 0.743208 -5.977576 -0.780058 2.990142 7.857995 -31.214470 61.774690 -20.124862 41.284412 19.611249 0.000000 0.000000 0.000000 
-0.075478 27.502232 0.471714 0.000000 0.000000 0.000000 7.076480 -55.787503 9.207310 -64.218402 27.346455 43.366640 51.302186 -19.529526 0.892679 1.187220 0.327394 -10.467286 0.695729 -6.827223 0.128289 0.000000 0.000000 0.000000 5.852849 -56.137598 9.387273 -24.107539 -1.825688 -32.926675 43.490567 5.150774 -9.919951 -31.539276 -7.740824 27.962808 5.266943 7.077655 3.771719 0.000000 0.000000 0.000000 8.957644 -50.230973 9.990470 13.847495 3.037397 -4.283571 2.817105 6.912212 -4.296656 -0.198822 -3.553252 1.173377 0.000000 0.000000 0.000000 -3.870411 6.258014 -3.139105 -0.116355 11.983400 -0.941254 -1.398973 24.695855 -3.810698 0.000000 0.000000 0.000000 -4.806017 5.791954 -2.992397 -0.327702 -8.853784 -1.433079 0.121214 -1.184627 -0.046877 -11.668010 6.549953 -43.991466 -23.799391 -34.369191 -20.755951 0.000000 0.000000 0.000000 -4.832389 5.737824 -2.584779 -1.659153 20.195992 0.448981 -6.309705 -0.766936 2.755763 10.333264 -32.497104 63.306134 -21.292334 44.556886 20.532361 0.000000 0.000000 0.000000 
